<?xml version="1.0" encoding="UTF-8" standalone="no"?>
<!DOCTYPE svg PUBLIC "-//W3C//DTD SVG 1.1//EN" "http://www.w3.org/Graphics/SVG/1.1/DTD/svg11.dtd">
<!-- Created with Vectornator (http://vectornator.io/) -->
<svg height="100%" stroke-miterlimit="10" style="fill-rule:nonzero;clip-rule:evenodd;stroke-linecap:round;stroke-linejoin:round;" version="1.1" viewBox="38.9142 44.4375 122.086 122.004" width="100%" xml:space="preserve" xmlns="http://www.w3.org/2000/svg" xmlns:vectornator="http://vectornator.io" xmlns:xlink="http://www.w3.org/1999/xlink">
<defs/>
<clipPath id="ArtboardFrame">
<rect height="122.004" width="122.086" x="38.9142" y="44.4375"/>
</clipPath>
<g clip-path="url(#ArtboardFrame)" id="Layer" vectornator:layerName="Layer">
<g opacity="1" vectornator:layerName="Group 1">
<path d="M142.312 44.4375C132.185 44.4375 123.94 52.48 123.625 62.5312L123.594 62.5625L123.594 81.8438L123.625 81.8438L142.312 81.8438C151.662 81.8438 161 73.4836 161 63.1562C161 52.8289 152.64 44.4375 142.312 44.4375ZM142.312 53C147.921 53 152.469 57.5473 152.469 63.1562C152.469 68.7652 147.921 73.3125 142.312 73.3125C136.704 73.3125 132.156 68.7652 132.156 63.1562C132.156 57.5473 136.704 53 142.312 53Z" fill="#00a4f9" fill-rule="nonzero" opacity="1" stroke="none" vectornator:layerName="Curve 6"/>
<path d="M56.0938 44.4375C34.5672 44.4375 31.7822 82.4062 56.2812 82.4062C80.7803 82.4062 117.437 81.9063 117.438 81.9062C117.438 81.9062 117.438 73.6648 117.438 62.1875C117.438 50.7102 106.361 44.4375 97.7188 44.4375C89.0765 44.4375 77.6203 44.4375 56.0938 44.4375ZM59.0312 53C64.6402 53 69.1875 57.5473 69.1875 63.1562C69.1875 68.7652 64.6402 73.3125 59.0312 73.3125C53.4223 73.3125 48.875 68.7652 48.875 63.1562C48.875 57.5473 53.4223 53 59.0312 53ZM97.6562 53C103.265 53 107.813 57.5473 107.812 63.1562C107.812 68.7652 103.265 73.3125 97.6562 73.3125C92.0473 73.3125 87.5 68.7652 87.5 63.1562C87.5 57.5473 92.0473 53 97.6562 53Z" fill="#7b7b83" fill-rule="nonzero" opacity="1" stroke="none" vectornator:layerName="Curve 7"/>
<path d="M79.4052 149.121C79.2525 170.647 117.201 173.701 117.374 149.203C117.548 124.705 117.308 88.0447 117.308 88.0447C117.308 88.0447 109.067 87.9862 97.5899 87.9048C86.1129 87.8233 79.7618 98.855 79.7005 107.497C79.6392 116.139 79.5579 127.595 79.4052 149.121ZM87.9883 146.244C88.0281 140.636 92.6076 136.121 98.2164 136.16C103.825 136.2 108.34 140.78 108.3 146.388C108.261 151.997 103.681 156.512 98.0723 156.472C92.4635 156.433 87.9485 151.853 87.9883 146.244ZM88.2623 107.62C88.3021 102.012 92.8816 97.4966 98.4904 97.5364C104.099 97.5762 108.614 102.156 108.574 107.764C108.535 113.373 103.955 117.888 98.3463 117.848C92.7375 117.809 88.2225 113.229 88.2623 107.62Z" fill="#7b7b83" fill-rule="nonzero" opacity="1" stroke="none" vectornator:layerName="Curve 8"/>
</g>
</g>
</svg>
